<svg width="60" height="60" viewBox="0 0 60 60" fill="none" xmlns="http://www.w3.org/2000/svg">
<path fill-rule="evenodd" clip-rule="evenodd" d="M39.41 10C40.8026 10 42.1677 10.3878 43.3524 11.1199C44.5371 11.852 45.4945 12.8995 46.1175 14.145L49.5825 21.0725C50.1925 20.8225 50.7925 20.5525 51.3825 20.2625C51.9759 19.9661 52.6628 19.9176 53.292 20.1277C53.9211 20.3377 54.4411 20.7891 54.7375 21.3825C55.0339 21.9759 55.0824 22.6628 54.8723 23.292C54.6623 23.9211 54.2109 24.4411 53.6175 24.7375C53.0166 25.0049 52.4123 25.265 51.805 25.5175L54.2075 30.325C54.729 31.3674 55.0003 32.517 55 33.6825V40C55 41.0552 54.7773 42.0985 54.3465 43.0618C53.9157 44.025 53.2865 44.8865 52.5 45.59V48.75C52.5 49.7446 52.1049 50.6984 51.4016 51.4016C50.6984 52.1049 49.7446 52.5 48.75 52.5C47.7554 52.5 46.8016 52.1049 46.0984 51.4016C45.3951 50.6984 45 49.7446 45 48.75V47.5H15V48.75C15 49.7446 14.6049 50.6984 13.9017 51.4016C13.1984 52.1049 12.2446 52.5 11.25 52.5C10.2554 52.5 9.30161 52.1049 8.59835 51.4016C7.89509 50.6984 7.5 49.7446 7.5 48.75V45.59C5.965 44.215 5 42.22 5 40V33.68C5.00047 32.5161 5.27179 31.3684 5.7925 30.3275L8.175 25.5575C7.57167 25.3042 6.97583 25.0317 6.3875 24.74C5.79708 24.4398 5.34827 23.9196 5.13783 23.2915C4.92739 22.6634 4.97216 21.9779 5.2625 21.3825C5.40915 21.0886 5.61228 20.8264 5.86029 20.611C6.1083 20.3957 6.39633 20.2313 6.7079 20.1272C7.01948 20.0232 7.3485 19.9816 7.67616 20.0048C8.00382 20.0281 8.32369 20.1156 8.6175 20.2625C9.20917 20.5542 9.80917 20.8242 10.4175 21.0725L13.8825 14.1475C14.5051 12.9015 15.4624 11.8535 16.6471 11.121C17.8318 10.3884 19.1971 10.0003 20.59 10H39.41ZM18.75 32.5C17.7554 32.5 16.8016 32.8951 16.0983 33.5983C15.3951 34.3016 15 35.2554 15 36.25C15 37.2446 15.3951 38.1984 16.0983 38.9017C16.8016 39.6049 17.7554 40 18.75 40C19.7446 40 20.6984 39.6049 21.4017 38.9017C22.1049 38.1984 22.5 37.2446 22.5 36.25C22.5 35.2554 22.1049 34.3016 21.4017 33.5983C20.6984 32.8951 19.7446 32.5 18.75 32.5ZM41.25 32.5C40.2554 32.5 39.3016 32.8951 38.5984 33.5983C37.8951 34.3016 37.5 35.2554 37.5 36.25C37.5 37.2446 37.8951 38.1984 38.5984 38.9017C39.3016 39.6049 40.2554 40 41.25 40C42.2446 40 43.1984 39.6049 43.9016 38.9017C44.6049 38.1984 45 37.2446 45 36.25C45 35.2554 44.6049 34.3016 43.9016 33.5983C43.1984 32.8951 42.2446 32.5 41.25 32.5ZM39.41 15H20.59C20.1785 14.9999 19.7734 15.1014 19.4105 15.2955C19.0477 15.4896 18.7384 15.7702 18.51 16.1125L18.355 16.3825L15.18 22.7275C19.05 23.8875 24.265 25 30 25C35.355 25 40.2525 24.03 44.025 22.9575L44.8175 22.7275L41.645 16.3825C41.461 16.0145 41.1891 15.6977 40.8533 15.46C40.5175 15.2223 40.1282 15.0712 39.72 15.02L39.4125 15H39.41Z" fill="white"/>
</svg>