
<svg width="60" height="60" viewBox="0 0 60 60" fill="none" xmlns="http://www.w3.org/2000/svg">
<g clip-path="url(#clip0_186_3601)">
<path fill-rule="evenodd" clip-rule="evenodd" d="M18.75 11.875C18.75 11.3287 24.395 7.5 30 7.5C35.605 7.5 41.25 11.3287 41.25 11.875C41.25 13.825 41.0425 14.98 40.8675 15.6088C40.7512 16.0213 40.365 16.25 39.9362 16.25H20.0638C19.635 16.25 19.2487 16.0213 19.1325 15.6088C18.9575 14.98 18.75 13.825 18.75 11.875ZM28.125 11.25C27.7935 11.25 27.4755 11.3817 27.2411 11.6161C27.0067 11.8505 26.875 12.1685 26.875 12.5C26.875 12.8315 27.0067 13.1495 27.2411 13.3839C27.4755 13.6183 27.7935 13.75 28.125 13.75H31.875C32.2065 13.75 32.5245 13.6183 32.7589 13.3839C32.9933 13.1495 33.125 12.8315 33.125 12.5C33.125 12.1685 32.9933 11.8505 32.7589 11.6161C32.5245 11.3817 32.2065 11.25 31.875 11.25H28.125ZM20.0475 24.0225C15.885 22.735 16.935 20.435 18.5225 18.75H41.825C43.095 20.3725 43.7762 22.5612 39.9375 23.8713C39.9792 24.2421 40 24.6183 40 25C39.9995 26.3541 39.7239 27.694 39.1901 28.9384C38.6563 30.1828 37.8753 31.3058 36.8945 32.2394C35.9136 33.173 34.7534 33.8976 33.4842 34.3694C32.215 34.8412 30.8631 35.0503 29.5107 34.984C28.1582 34.9178 26.8333 34.5775 25.6163 33.9839C24.3992 33.3903 23.3154 32.5558 22.4305 31.5308C21.5457 30.5058 20.8782 29.3118 20.4686 28.0212C20.0589 26.7305 19.9157 25.3702 20.0475 24.0225ZM29.66 25C32.9625 25 35.5225 24.825 37.485 24.52C37.495 24.6783 37.5 24.8383 37.5 25C37.4991 26.0009 37.2979 26.9916 36.9082 27.9135C36.5185 28.8354 35.9481 29.6701 35.2308 30.3682C34.5135 31.0662 33.6637 31.6137 32.7316 31.9782C31.7994 32.3428 30.8036 32.5171 29.8031 32.4908C28.8025 32.4645 27.8173 32.2382 26.9055 31.8252C25.9938 31.4122 25.1739 30.8209 24.4942 30.0861C23.8145 29.3513 23.2888 28.4879 22.9481 27.5468C22.6073 26.6057 22.4583 25.6058 22.51 24.6062C24.3387 24.8587 26.6825 25 29.66 25ZM40.5212 43.25C39.3907 41.4858 37.8345 40.0345 35.9959 39.0297C34.1572 38.0248 32.0953 37.4988 30 37.5C27.9038 37.4984 25.841 38.0245 24.0016 39.0299C22.1622 40.0352 20.6055 41.4873 19.475 43.2525C19.0545 42.607 18.4103 42.1396 17.6663 41.94L15.2513 41.2938C14.4508 41.0792 13.5979 41.1913 12.8801 41.6055C12.1623 42.0197 11.6385 42.7021 11.4237 43.5025L10.4537 47.125C10.3475 47.5214 10.3204 47.9349 10.374 48.3418C10.4276 48.7487 10.5608 49.1411 10.766 49.4965C10.9712 49.8519 11.2444 50.1634 11.57 50.4133C11.8957 50.6631 12.2673 50.8463 12.6637 50.9525L15.0775 51.6C15.4836 51.7088 15.9074 51.7345 16.3237 51.6757C16.7399 51.6168 17.14 51.4746 17.5 51.2575C17.501 51.589 17.6336 51.9066 17.8688 52.1403C18.1039 52.374 18.4222 52.5047 18.7538 52.5037C19.0853 52.5028 19.4028 52.3701 19.6365 52.135C19.8703 51.8999 20.001 51.5815 20 51.25V50C20 49.5233 20.0325 49.0554 20.0975 48.5962L26.6025 50.34C26.9045 50.9863 27.3845 51.5331 27.9863 51.9162C28.5881 52.2992 29.2866 52.5027 30 52.5027C30.7134 52.5027 31.4119 52.2992 32.0137 51.9162C32.6155 51.5331 33.0955 50.9863 33.3975 50.34L39.9025 48.5962C39.9667 49.0554 39.9992 49.5233 40 50V51.25C39.9983 51.5815 40.1284 51.9001 40.3617 52.1357C40.5949 52.3713 40.9122 52.5046 41.2437 52.5063C41.5753 52.5079 41.8939 52.3778 42.1295 52.1446C42.3651 51.9113 42.4983 51.594 42.5 51.2625C43.2 51.6825 44.065 51.8287 44.9162 51.6L47.3313 50.9538C47.7277 50.8476 48.0993 50.6643 48.425 50.4145C48.7506 50.1647 49.0238 49.8532 49.229 49.4977C49.4342 49.1423 49.5674 48.75 49.621 48.3431C49.6746 47.9361 49.6475 47.5227 49.5412 47.1263L48.57 43.5038C48.3553 42.7033 47.8314 42.021 47.1136 41.6068C46.3959 41.1925 45.543 41.0804 44.7425 41.295L42.3275 41.9413C41.5851 42.1401 40.9421 42.6069 40.5212 43.25ZM20.7537 46.1825C21.4294 44.5498 22.525 43.125 23.9294 42.0528C25.3338 40.9805 26.997 40.299 28.75 40.0775V45.2138C28.1895 45.4118 27.684 45.7403 27.2754 46.1722C26.8668 46.604 26.5668 47.1269 26.4 47.6975L20.7537 46.1825ZM39.2462 46.1825C38.5706 44.5498 37.475 43.125 36.0706 42.0528C34.6661 40.9805 33.003 40.299 31.25 40.0775V45.2138C32.38 45.6138 33.2625 46.5387 33.6 47.6975L39.2462 46.1825ZM30 50C30.3315 50 30.6495 49.8683 30.8839 49.6339C31.1183 49.3995 31.25 49.0815 31.25 48.75C31.25 48.4185 31.1183 48.1005 30.8839 47.8661C30.6495 47.6317 30.3315 47.5 30 47.5C29.6685 47.5 29.3505 47.6317 29.1161 47.8661C28.8817 48.1005 28.75 48.4185 28.75 48.75C28.75 49.0815 28.8817 49.3995 29.1161 49.6339C29.3505 49.8683 29.6685 50 30 50Z" fill="white"/>
</g>
<defs>
<clipPath id="clip0_186_3601">
<rect width="60" height="60" fill="white"/>
</clipPath>
</defs>
</svg>
