<svg width="473" height="291" viewBox="0 0 473 291" fill="none" xmlns="http://www.w3.org/2000/svg">
<path fill-rule="evenodd" clip-rule="evenodd" d="M244.3 29.297C134.626 -7.72751 27.1789 16.6437 4.31146 83.7306C-18.5559 150.818 51.8144 235.218 161.488 272.242C271.162 309.266 378.609 284.895 401.477 217.808C424.344 150.721 353.974 66.3207 244.3 29.297Z" fill="#ABCCD6"/>
<path fill-rule="evenodd" clip-rule="evenodd" d="M29.4198 60.2546C16.0189 55.73 3.05067 58.2345 0.455215 65.8485C-2.13942 73.4626 6.61966 83.3025 20.0221 87.8264C33.4238 92.351 46.3912 89.8465 48.9866 82.2324C51.5821 74.6184 42.8214 64.7784 29.4198 60.2546Z" fill="#023342"/>
<path fill-rule="evenodd" clip-rule="evenodd" d="M49.0646 43.6297C42.2526 45.9553 38.0689 51.7273 39.722 56.5223C41.3735 61.3165 48.2364 63.3186 55.0493 60.9922C61.8622 58.6674 66.0459 52.8954 64.3928 48.1004C62.7405 43.3062 55.8775 41.3041 49.0646 43.6297Z" fill="#023342"/>
<path fill-rule="evenodd" clip-rule="evenodd" d="M27.7315 43.5196C24.0763 42.2853 20.376 43.4485 19.4666 46.1164C18.5563 48.7851 20.7824 51.9488 24.4375 53.1823C28.0935 54.4166 31.7929 53.2534 32.7032 50.5846C33.6127 47.9168 31.3866 44.753 27.7315 43.5196Z" fill="#023342"/>
<path fill-rule="evenodd" clip-rule="evenodd" d="M420.348 140.446C425.669 150.589 434.699 156.361 440.519 153.339C446.338 150.316 446.741 139.643 441.42 129.499C436.099 119.356 427.069 113.583 421.251 116.606C415.431 119.629 415.028 130.303 420.348 140.446Z" fill="#E1E2DF"/>
<path fill-rule="evenodd" clip-rule="evenodd" d="M442.454 99.9575C437.07 102.061 433.918 106.838 435.412 110.627C436.907 114.417 442.484 115.783 447.868 113.679C453.252 111.576 456.405 106.799 454.91 103.009C453.415 99.2199 447.839 97.8533 442.454 99.9575Z" fill="#F0F8FB"/>
<path fill-rule="evenodd" clip-rule="evenodd" d="M430.4 88.9642C428.947 85.9459 425.965 84.3595 423.74 85.4214C421.515 86.4817 420.89 89.7892 422.344 92.8075C423.798 95.825 426.78 97.4114 429.004 96.3503C431.229 95.2892 431.854 91.9817 430.4 88.9642Z" fill="#E1E2DF"/>
<path fill-rule="evenodd" clip-rule="evenodd" d="M289.271 19.6212C196.246 50.7675 102.673 -16.9066 73.4301 91.704C56.3462 155.153 185.819 177.061 261.645 186.801C337.47 196.541 404.713 162.646 411.838 111.093C418.962 59.5415 382.295 -11.5251 289.271 19.6212Z" fill="#F0F8FB"/>
<path fill-rule="evenodd" clip-rule="evenodd" d="M295.967 133.081L292.33 170.39L272.883 176.625L271.654 134.063L295.967 133.081ZM144.817 116.922L106.409 124.878L106.249 110.158L143.079 98.876L144.817 116.922ZM209.682 68.7843L215.167 112.319L214.624 142.595L214.773 143.886L193.195 147.386L185.192 73.839L209.682 68.7843ZM206.496 43.4932L208.849 62.1742L184.47 67.2061L182.291 47.1781L206.496 43.4932ZM256.387 39.3583L264.725 89.2983L264.955 97.2782L220.341 108.087L212.124 42.8593L256.387 39.3583ZM304.469 28.538L299.151 100.399H299.153L296.62 126.388L271.461 127.404L270.336 88.4332L261.992 38.4622L304.469 28.538ZM351.809 73.3824L360.121 94.7933L304.104 107.894L304.77 101.064L304.781 100.973L305.955 85.1094L351.809 73.3824ZM365.803 93.4643L357.447 71.9406L390.805 63.4101L396.455 86.2955L365.803 93.4643ZM300.412 145.767L332.833 145.717L337.539 168.214L298.091 169.578L300.412 145.767ZM368.92 137.585L334.941 139.054L301.061 139.106L303.425 114.861L362.545 101.034L372.409 126.444L367.106 131.645L368.92 137.585ZM382.316 29.0314L389.218 56.9822L306.47 78.1431L311.223 13.93C309.331 14.2698 307.413 14.6529 305.465 15.0867L304.982 21.611L260.898 31.9092L259.991 26.4763C258.111 26.7491 256.234 27.0015 254.36 27.2196L255.284 32.7563L211.29 36.237L210.317 28.5094C208.396 28.4457 206.484 28.373 204.581 28.293L205.667 36.9036L181.572 40.5729L180.106 27.1044C178.191 27.0162 176.292 26.9402 174.404 26.87L184.143 116.366L160.205 119.458L151.651 26.7826C149.748 26.8634 147.867 26.9721 146.008 27.1159L154.121 114.994L150.385 115.769L147.951 90.5007L106.175 103.298L105.485 39.6442C103.568 40.9552 101.706 42.3937 99.9009 43.9629L100.349 85.2376L76.3309 82.1131C75.6324 84.1781 74.9708 86.3461 74.3272 88.5631L100.422 91.958L100.99 144.443C102.814 145.572 104.704 146.675 106.657 147.75L106.483 131.645L154.735 121.649L155.329 128.092L163.728 158.695L159.028 167.751C160.953 168.281 162.889 168.8 164.836 169.308L169.894 159.559L160.871 126.676L160.818 126.089L184.864 122.983L188.336 154.903L215.538 150.491L219.027 180.587C220.97 180.912 222.903 181.226 224.824 181.535L220.263 142.172L220.755 114.789L265.151 104.033L267.298 178.414L259.313 180.974L240.834 183.972C248.085 185.018 255.07 185.957 261.645 186.801C261.905 186.835 262.165 186.862 262.425 186.894L291.634 177.531L290.571 188.44C292.48 188.41 294.381 188.358 296.268 188.273L297.44 176.265L338.924 174.83L340.183 180.848C342.02 180.283 343.831 179.685 345.618 179.061L344.691 174.631L357.811 174.177C362.547 172.018 367.045 169.635 371.285 167.047L343.307 168.015L338.61 145.563L370.928 144.166L376.818 163.457C378.497 162.293 380.123 161.089 381.702 159.855L373.749 133.803L379.336 128.325L368.225 99.706L398.044 92.7324L406.886 128.545C408.284 125.351 409.433 122.062 410.319 118.686L389.986 36.3326C387.622 33.7382 385.066 31.2958 382.316 29.0314Z" fill="white"/>
<path fill-rule="evenodd" clip-rule="evenodd" d="M374.347 256.198C424.215 257.612 456.178 259.791 456.178 262.234C456.178 264.971 416.125 267.374 355.727 268.745C362.526 265.032 368.76 260.844 374.347 256.198Z" fill="#E1E2DF"/>
<path fill-rule="evenodd" clip-rule="evenodd" d="M239.085 254.517C290.238 254.517 337.25 255.146 374.353 256.199C368.765 260.844 362.532 265.032 355.734 268.744C322.041 269.51 282.02 269.953 239.085 269.953C208.583 269.953 179.558 269.728 153.221 269.324C142.119 265.262 131.449 260.716 121.27 255.751C155.203 254.97 195.652 254.517 239.085 254.517Z" fill="#023342"/>
<path fill-rule="evenodd" clip-rule="evenodd" d="M344.557 151.033C364.426 157.524 398.093 160.996 422.511 168.39C446.928 175.786 456.178 189.521 456.178 193.444C456.178 197.368 456.178 211.103 456.178 217.442C456.178 223.781 448.068 230.046 435.856 237.062C423.645 244.079 412.804 242.647 406.587 242.647H403.917C405.441 238.443 406.274 233.91 406.274 229.184C406.274 207.274 388.425 189.512 366.408 189.512C344.391 189.512 326.543 207.274 326.543 229.184C326.543 233.91 327.375 238.443 328.899 242.647H118.017C119.542 238.443 120.373 233.91 120.373 229.184C120.373 207.274 102.525 189.512 80.5089 189.512C67.3552 189.512 55.6912 195.853 48.4301 205.629C40.977 198.398 34.2807 190.92 28.4159 183.279C28.6597 181.496 28.8034 179.793 28.8034 178.2C28.8034 162.957 58.3769 132.621 63.0786 127.791C67.7795 122.961 73.6944 117.226 73.0878 114.962C72.4812 112.698 65.9901 113.897 65.505 112.094C65.0199 110.291 79.9121 107.264 96.4436 104.548C112.974 101.831 163.325 96.6999 196.842 98.5109C230.358 100.322 249.164 105.001 275.856 117.377C302.548 129.753 318.472 140.468 344.557 151.033Z" fill="#2D8098"/>
<path fill-rule="evenodd" clip-rule="evenodd" d="M223.341 211.767C265.729 211.767 300.092 212.722 300.092 213.899C300.092 215.077 265.729 216.032 223.341 216.032C180.952 216.032 146.589 215.077 146.589 213.899C146.589 212.722 180.952 211.767 223.341 211.767Z" fill="#024457"/>
<path fill-rule="evenodd" clip-rule="evenodd" d="M28.7968 178.701C28.8001 178.533 28.8034 178.365 28.8034 178.2C28.8034 177.974 28.8116 177.744 28.8239 177.51C33.4156 178.505 39.3346 180.065 45.4366 183.67C46.9625 184.571 48.5517 185.709 50.2525 186.926C53.6581 189.365 57.52 192.128 62.2513 193.909C61.7916 194.145 61.3385 194.391 60.8895 194.643C56.4743 192.819 52.8183 190.203 49.5662 187.875C47.8991 186.68 46.3404 185.565 44.8382 184.677C38.9825 181.219 33.2728 179.681 28.7968 178.701Z" fill="#01222C"/>
<path fill-rule="evenodd" clip-rule="evenodd" d="M30.2243 171.476C32.8181 164.466 38.618 156.062 44.6774 148.463C51.2308 147.553 54.0405 147.425 54.5987 149.212C55.3334 151.572 42.9537 168.521 36.3805 170.595C34.4277 171.21 32.2796 171.447 30.2243 171.476Z" fill="#024457"/>
<path fill-rule="evenodd" clip-rule="evenodd" d="M419.511 167.515C420.525 167.802 421.526 168.092 422.511 168.39C440.109 173.721 449.829 182.344 453.885 188.214C443.988 192.35 420.027 186.034 414.108 184.561C407.05 182.805 408.679 172.946 410.715 170.45C412.943 168.296 416.007 167.459 419.511 167.515Z" fill="white"/>
<path fill-rule="evenodd" clip-rule="evenodd" d="M68.3689 154.453C73.563 160.107 140.357 159.888 158.46 159.891C196.328 159.898 281.641 166.79 281.641 165.635C281.641 163.512 269.237 162.941 240.707 160.053C226.203 158.585 207.53 157.066 184.2 155.826C114.982 152.145 60.8099 146.226 68.3689 154.453Z" fill="#024457"/>
<path fill-rule="evenodd" clip-rule="evenodd" d="M425.234 171.668C428.57 171.668 434.046 175.206 437.466 179.569C440.886 183.933 440.955 187.47 437.62 187.47C434.284 187.47 428.807 183.933 425.387 179.569C421.967 175.206 421.898 171.668 425.234 171.668Z" fill="#EDEEED"/>
<path fill-rule="evenodd" clip-rule="evenodd" d="M80.5089 192.572C100.827 192.572 117.298 208.964 117.298 229.183C117.298 237.041 114.81 244.321 110.576 250.284C87.5261 237.957 67.2977 223.484 50.6653 207.774C57.346 198.566 68.2228 192.572 80.5089 192.572Z" fill="#040606"/>
<path fill-rule="evenodd" clip-rule="evenodd" d="M366.408 192.572C386.726 192.572 403.197 208.964 403.197 229.184C403.197 249.404 386.726 265.796 366.408 265.796C346.09 265.796 329.619 249.404 329.619 229.184C329.619 208.964 346.09 192.572 366.408 192.572Z" fill="#040606"/>
<path fill-rule="evenodd" clip-rule="evenodd" d="M102.686 114.814C97.5919 118.996 90.459 138.769 89.185 145.995C89.185 145.995 171.846 150.05 184.2 151.572L182.29 106.194C182.29 106.194 108.8 109.997 102.686 114.814Z" fill="white"/>
<path fill-rule="evenodd" clip-rule="evenodd" d="M183.943 145.451L183.844 143.101C182.863 143.029 181.925 142.83 181.073 142.485C179.655 141.912 178.468 140.916 177.731 139.396C176.767 137.408 176.531 134.512 177.454 130.477C179.189 122.904 175.326 119.529 169.34 118.171C164.013 116.964 157.007 117.473 151.04 117.907C146.01 118.272 141.757 118.581 140.409 117.81C137.91 116.382 138.72 113.794 140.227 111.182C140.647 110.456 141.136 109.702 141.638 108.959C140.648 109.042 139.66 109.127 138.674 109.214C138.51 109.479 138.349 109.747 138.193 110.019C136.062 113.708 135.054 117.441 139.24 119.835C141.221 120.968 145.796 120.636 151.205 120.243C157.019 119.821 163.847 119.324 168.823 120.452C173.487 121.51 176.5 124.121 175.163 129.964C174.109 134.563 174.432 137.974 175.614 140.413C176.629 142.506 178.253 143.873 180.188 144.657C181.352 145.128 182.626 145.382 183.943 145.451ZM102.686 114.814C99.5045 117.426 95.5267 126.122 92.6785 134.042C99.1942 136.459 107.921 136.578 112.364 139.603C115.191 141.529 114.74 144.329 112.9 147.197C130.635 148.118 154.396 149.4 169.884 150.429C160.865 142.575 166.674 133.564 160.249 128.883C151.312 122.371 130.052 128.883 123.967 121.94C121.842 119.515 121.175 115.365 121.206 110.992C111.715 112.139 104.436 113.435 102.686 114.814Z" fill="#EDEEED"/>
<path fill-rule="evenodd" clip-rule="evenodd" d="M195.664 106.194L204.197 153.346C204.197 153.346 302.778 162.599 303.925 161.458C305.071 160.318 296.941 137.89 296.304 136.32C295.667 134.75 259.091 111.138 195.664 106.194Z" fill="white"/>
<path fill-rule="evenodd" clip-rule="evenodd" d="M298.715 142.989C298.213 141.553 297.747 140.248 297.36 139.175C294.444 137.837 291.525 138.056 289.086 138.24C287.11 138.388 285.549 138.506 285.043 137.494C284.527 136.467 285.521 134.791 286.605 132.965C287.011 132.28 287.427 131.579 287.801 130.865C287.141 130.509 286.445 130.143 285.71 129.765C285.367 130.447 284.968 131.12 284.58 131.774C283.156 134.174 281.85 136.374 282.935 138.538C284.149 140.96 286.404 140.79 289.261 140.576C292.007 140.37 295.465 140.11 298.715 142.989ZM195.664 106.194L197.92 118.666C207.936 119.626 218.133 119.995 219.744 124.183C223.801 134.724 206.663 134.358 210.505 148.628C211.197 151.197 212.568 153.007 214.356 154.29C239.556 156.615 303.006 162.372 303.925 161.458C304.214 161.171 303.912 159.527 303.29 157.206C282.953 149.921 258.055 151.853 258.055 145.995C258.055 138.131 275.407 139.603 273.154 130.71C270.958 122.045 235.389 121.086 233.569 111.744C222.301 109.279 209.635 107.283 195.664 106.194Z" fill="#EDEEED"/>
<path fill-rule="evenodd" clip-rule="evenodd" d="M300.593 139.603C300.593 139.603 332.53 159.217 333.928 161.556C335.326 163.896 306.508 161.556 306.508 161.556C306.508 161.556 305.11 151.589 300.593 139.603Z" fill="white"/>
<path fill-rule="evenodd" clip-rule="evenodd" d="M278.496 151.099C278.834 157.145 283.691 158.689 287.065 158.286C290.438 157.883 298.805 154.991 298.805 151.099C298.805 147.208 293.947 142.911 288.65 142.911C283.354 142.911 278.199 145.698 278.496 151.099Z" fill="#2D8098"/>
<path fill-rule="evenodd" clip-rule="evenodd" d="M90.5993 157.816C90.5312 160.3 87.7658 161.442 96.3336 161.174C104.902 160.904 112.998 163.053 112.324 160.434C111.649 157.816 105.813 156.07 101.242 156.07C96.671 156.07 90.1208 154.862 90.5993 157.816Z" fill="white"/>
<path fill-rule="evenodd" clip-rule="evenodd" d="M201.648 164.664C201.581 167.148 198.815 168.289 207.382 168.021C215.951 167.752 224.047 169.901 223.373 167.282C222.698 164.664 216.861 162.918 212.291 162.918C207.72 162.918 201.17 161.71 201.648 164.664Z" fill="white"/>
<path d="M188.909 106.194L193.936 151.572C195.664 158.346 199.686 198.632 199.686 231.082M89.185 145.995C89.185 145.995 82.5207 171.242 86.3204 178.102C90.1208 184.965 99.7713 185.864 112.995 198.349C126.219 210.834 125.768 227.174 129.723 229.184C133.679 231.194 199.686 231.082 199.686 231.082C199.686 231.082 300.899 234.779 303.925 231.981C306.95 229.184 306.95 199.051 306.95 190.601C306.95 182.152 307.349 166.722 303.972 161.388" stroke="#01222C" stroke-width="4.8882" stroke-miterlimit="22.9256"/>
<path fill-rule="evenodd" clip-rule="evenodd" d="M450.895 202.936C450.895 203.811 424.111 206.718 418.586 204.687C413.061 202.656 413.483 198.732 419.396 198.732C425.308 198.732 431.89 201.146 438.717 201.604C445.545 202.063 450.895 202.063 450.895 202.936Z" fill="#024457"/>
<path fill-rule="evenodd" clip-rule="evenodd" d="M436.797 215.21C436.797 215.21 437.493 221.386 436.987 223.465C436.48 225.544 435.531 227.498 433.061 227.435C430.591 227.373 426.743 224.158 426.743 219.243C426.743 214.328 436.797 215.21 436.797 215.21Z" fill="white"/>
<path d="M441.294 213.322C434.896 213.953 427.879 212.54 425.541 215.647C423.436 218.445 423.844 222.068 427.871 227.437" stroke="#01222C" stroke-width="3.66613" stroke-miterlimit="22.9256"/>
<path fill-rule="evenodd" clip-rule="evenodd" d="M80.5089 205.852C93.4566 205.852 103.953 216.298 103.953 229.184C103.953 234.67 102.05 239.714 98.865 243.698C84.8855 235.427 72.0921 226.359 60.6859 216.721C64.8409 210.189 72.1652 205.852 80.5089 205.852Z" fill="#252627"/>
<path fill-rule="evenodd" clip-rule="evenodd" d="M63.0524 218.689C65.4197 214.799 69.0609 211.765 73.4014 210.158C71.4963 213.533 70.407 217.426 70.407 221.571C70.407 222.631 70.4792 223.672 70.6171 224.693C68.0348 222.72 65.5132 220.718 63.0524 218.689Z" fill="#56595B"/>
<path fill-rule="evenodd" clip-rule="evenodd" d="M366.408 205.852C379.356 205.852 389.853 216.298 389.853 229.184C389.853 242.07 379.356 252.517 366.408 252.517C353.459 252.517 342.963 242.07 342.963 229.184C342.963 216.298 353.459 205.852 366.408 205.852Z" fill="#252627"/>
<path fill-rule="evenodd" clip-rule="evenodd" d="M378.591 245.459C375.192 247.983 370.976 249.478 366.408 249.478C355.146 249.478 346.016 240.392 346.016 229.184C346.016 223.943 348.013 219.167 351.292 215.566C350.577 217.801 350.189 220.181 350.189 222.651C350.189 235.537 360.686 245.983 373.634 245.983C375.335 245.983 376.992 245.801 378.591 245.459Z" fill="#56595B"/>
<path fill-rule="evenodd" clip-rule="evenodd" d="M414.309 173.32C416.519 173.32 420.147 175.664 422.412 178.555C424.678 181.446 424.724 183.789 422.514 183.789C420.304 183.789 416.676 181.446 414.411 178.555C412.144 175.664 412.099 173.32 414.309 173.32Z" fill="#E3ED51"/>
<path fill-rule="evenodd" clip-rule="evenodd" d="M293.541 154.124C291.383 155.332 289.747 155.767 291.712 160.955C293.677 166.142 294.894 166.947 300.593 166.947C306.293 166.947 305.821 162.918 302.313 159.293C298.805 155.667 296.038 152.982 293.541 154.124Z" fill="#01222C"/>
<path fill-rule="evenodd" clip-rule="evenodd" d="M196.06 58.4616C192.741 58.4616 190.052 58.9958 190.052 59.6542C190.052 60.3134 192.741 60.8477 196.06 60.8477C199.378 60.8477 202.068 60.3134 202.068 59.6542C202.068 58.9958 199.378 58.4616 196.06 58.4616Z" fill="#C3C5C3"/>
<path fill-rule="evenodd" clip-rule="evenodd" d="M196.06 -1.52588e-05C186.346 -1.52588e-05 178.471 7.83699 178.471 17.5038C178.471 27.1722 196.06 59.6542 196.06 59.6542C196.06 59.6542 213.65 27.1722 213.65 17.5038C213.65 7.83699 205.774 -1.52588e-05 196.06 -1.52588e-05Z" fill="#338A44"/>
<path fill-rule="evenodd" clip-rule="evenodd" d="M196.06 11.5252C192.741 11.5252 190.052 14.2021 190.052 17.5038C190.052 20.8064 192.741 23.4841 196.06 23.4841C199.378 23.4841 202.068 20.8064 202.068 17.5038C202.068 14.2021 199.378 11.5252 196.06 11.5252Z" fill="white"/>
<path fill-rule="evenodd" clip-rule="evenodd" d="M381.002 49.2334C381.002 49.2334 381.235 56.8817 383.914 59.1992C386.591 61.5166 387.639 49.1174 387.639 49.1174L381.002 49.2334Z" fill="#040606"/>
<path fill-rule="evenodd" clip-rule="evenodd" d="M395.636 280.763C396.263 280.762 396.893 280.761 397.523 280.761C438.692 280.761 472.067 283.053 472.067 285.882C472.067 288.708 438.692 291 397.523 291C382.9 291 369.263 290.711 357.752 290.211C336.858 289.304 322.98 287.704 322.98 285.882C322.98 283.096 355.339 280.832 395.636 280.763Z" fill="#E1E2DF"/>
<path fill-rule="evenodd" clip-rule="evenodd" d="M384.366 94.0753C384.335 90.959 384.232 87.4603 385.965 84.6618C387.698 81.864 395.79 83.6219 401.895 83.403C407.998 83.1841 422.439 79.3578 424.594 84.4428C426.748 89.5287 424.594 93.2544 424.594 93.2544C424.594 93.2544 429.946 97.6883 433.211 103.052C436.477 108.415 439.142 118.644 440.941 122.149C442.741 125.655 444.473 134.358 443.407 140.268C442.341 146.179 442.608 152.911 440.341 155.1C438.076 157.289 431.212 159.62 421.217 160.179C411.221 160.737 389.221 165.619 389.221 152.022C389.221 138.426 379.452 129.647 384.366 94.0753Z" fill="#023342"/>
<path fill-rule="evenodd" clip-rule="evenodd" d="M384.366 94.0753C384.341 91.57 384.27 88.8172 385.143 86.3804C388.203 86.4237 391.875 86.8354 395.02 86.7227C401.124 86.5038 415.565 82.6776 417.719 87.7626C419.873 92.8476 417.719 96.5741 417.719 96.5741C417.719 96.5741 423.072 101.007 426.337 106.371C429.602 111.734 432.268 121.963 434.067 125.469C435.866 128.975 437.599 137.676 436.533 143.588C435.49 149.37 435.721 155.938 433.612 158.27C430.372 159.187 426.181 159.902 421.217 160.179C411.221 160.737 389.221 165.619 389.221 152.022C389.221 138.426 379.452 129.647 384.366 94.0753Z" fill="#024457"/>
<path fill-rule="evenodd" clip-rule="evenodd" d="M348.097 278.523C348.097 278.523 347.175 286.12 354.445 285.884C361.714 285.647 367.578 284.692 367.578 284.692V285.884H379.113V280.472L348.097 278.523Z" fill="#642815"/>
<path fill-rule="evenodd" clip-rule="evenodd" d="M376.977 171.803L366.557 265.937H378.443L396.178 198.767L410.907 269.659H422.882L422.968 171.803H376.977Z" fill="#023342"/>
<path fill-rule="evenodd" clip-rule="evenodd" d="M382.867 131.542C380.323 138.785 375.235 145.68 366.925 144.983C358.614 144.287 366.925 122.696 366.925 122.696L382.867 131.542Z" fill="#FAB682"/>
<path fill-rule="evenodd" clip-rule="evenodd" d="M364.486 130.518C365.558 126.249 366.925 122.696 366.925 122.696L374.479 126.887C374.594 131.822 373.213 136.868 367.165 137.117L364.486 130.518Z" fill="#F8A074"/>
<path fill-rule="evenodd" clip-rule="evenodd" d="M406.085 75.2793L407.998 98.0103H392.139C392.139 98.0103 395.761 85.5056 395.761 79.0891L406.085 75.2793Z" fill="#FAB682"/>
<path fill-rule="evenodd" clip-rule="evenodd" d="M406.085 75.2792L406.484 80.0203C402.899 83.684 398.134 87.0854 394.493 88.4888C395.185 85.1723 395.761 81.6475 395.761 79.0891L406.085 75.2792Z" fill="#F57D5C"/>
<path fill-rule="evenodd" clip-rule="evenodd" d="M383.856 44.9916C383.856 44.9916 378.078 82.6859 396.888 82.6859C415.699 82.6859 413.486 56.9481 413.486 50.4679V44.9916H383.856Z" fill="#FAB682"/>
<path fill-rule="evenodd" clip-rule="evenodd" d="M415.743 60.2277C409.923 60.6892 405.663 56.8556 405.663 53.6878C405.663 50.52 407.448 47.4085 407.448 47.4085C407.448 47.4085 401.376 54.0415 391.366 53.8683C381.356 53.6952 376.927 48.5383 377.51 42.0483C377.886 37.8381 381.763 34.3901 385.332 34.3901C388.902 34.3901 395.11 37.04 399.455 37.04C403.801 37.04 408.63 35.1964 411.686 37.7891C414.742 40.381 414.509 42.973 414.509 42.973C414.509 42.973 421.944 44.8166 421.944 51.2111C421.944 57.6047 417.064 60.6475 415.923 60.5863L415.743 60.2277Z" fill="#040606"/>
<path fill-rule="evenodd" clip-rule="evenodd" d="M399.585 62.5402C398.954 62.5402 398.442 63.0728 398.442 63.7296C398.442 64.3863 398.954 64.9189 399.585 64.9189C400.216 64.9189 400.728 64.3863 400.728 63.7296C400.728 63.0728 400.216 62.5402 399.585 62.5402Z" fill="#040606"/>
<path fill-rule="evenodd" clip-rule="evenodd" d="M388.083 62.6929C387.452 62.6929 386.941 63.2255 386.941 63.8822C386.941 64.5398 387.452 65.0724 388.083 65.0724C388.715 65.0724 389.227 64.5398 389.227 63.8822C389.227 63.2255 388.715 62.6929 388.083 62.6929Z" fill="#040606"/>
<path fill-rule="evenodd" clip-rule="evenodd" d="M392.414 62.8555C390.556 66.185 389.309 68.8227 395.056 69.8397C395.329 69.8716 395.57 69.7319 395.593 69.5293C395.617 69.3259 395.414 69.1356 395.141 69.1045C390.333 68.2574 391.698 66.1123 393.32 63.2076C393.433 63.027 393.322 62.8008 393.072 62.7044C392.822 62.6063 392.527 62.6741 392.414 62.8555Z" fill="#F57D5C"/>
<path fill-rule="evenodd" clip-rule="evenodd" d="M426.572 102.528C424.978 100.171 407.398 90.8675 407.398 90.8675C407.398 90.8675 404.571 96.6975 399.15 96.6975C393.729 96.6975 394.108 90.2647 394.108 90.2647C394.108 90.2647 375.475 95.1953 373.721 97.0937C371.967 98.9921 364.235 128.52 364.235 128.52C364.235 128.52 369.337 132.448 379.221 131.859C379.221 131.859 376.83 156.148 376.032 161.386C375.236 166.623 373.529 170.401 374.007 170.992C377.245 174.993 387.651 176.491 392.241 177.107C403.29 178.592 415.773 176.769 425.744 171.652C427.019 170.997 423.782 143.12 422.826 138.144C422.826 138.144 434.862 135.263 434.942 134.478C435.022 133.692 428.086 104.623 426.572 102.528Z" fill="#ABCCD6"/>
<path fill-rule="evenodd" clip-rule="evenodd" d="M372.188 131.5C373.41 131.712 374.771 131.86 376.269 131.905L376.947 106.466C371.887 114.969 372.037 127.913 372.188 131.5Z" fill="#036683"/>
<path fill-rule="evenodd" clip-rule="evenodd" d="M409.259 91.8648L408.823 91.6304C408.114 93.189 406.66 94.9289 404.861 96.2294C403.049 97.5388 400.892 98.3932 398.816 98.1425C394.746 97.6523 393.37 95.535 393.059 93.412C392.909 92.3925 393 91.3706 393.159 90.5194L392.616 90.6665C392.476 91.5046 392.407 92.4832 392.55 93.4618C392.886 95.7498 394.366 98.0314 398.741 98.5582C400.986 98.8286 403.284 97.9284 405.199 96.5447C407.022 95.2279 408.504 93.4659 409.259 91.8648Z" fill="#036683"/>
<path fill-rule="evenodd" clip-rule="evenodd" d="M369.978 133.864C371.165 139.621 369.193 144.693 366.212 144.862C363.231 145.032 360.395 143.66 355.986 135.58C351.576 127.502 347.421 106.677 346.743 105.493C346.064 104.309 339.534 105.423 337.668 103.125C335.803 100.827 334.531 90.2647 337.668 90.2647C340.806 90.2647 350.869 94.4193 353.046 102.707C355.223 110.995 364.235 117.57 369.978 133.864Z" fill="#FAB682"/>
<path fill-rule="evenodd" clip-rule="evenodd" d="M368.251 259.075C363.955 260.659 366.323 269.154 365.27 270.737C364.219 272.32 361.59 273.401 357.645 272.608C353.701 271.817 347.04 272.537 347.04 277.288C347.04 282.039 348.732 283.766 357.645 283.766C366.557 283.766 378.885 283.781 379.43 282.111C379.975 280.439 379.994 265.911 378.88 264.327C378.532 263.912 375.564 264.761 374.418 263.753C372.7 262.244 372.251 258.848 368.251 259.075Z" fill="#ABCCD6"/>
<path fill-rule="evenodd" clip-rule="evenodd" d="M355.758 272.371C357.731 272.623 358.994 274.193 359.761 275.557C359.862 275.773 360.156 275.883 360.422 275.802C360.686 275.719 360.82 275.476 360.719 275.259C359.725 273.492 358.275 271.826 355.758 271.53C355.474 271.53 355.245 271.719 355.245 271.951C355.245 272.183 355.474 272.371 355.758 272.371Z" fill="#040606"/>
<path fill-rule="evenodd" clip-rule="evenodd" d="M360.24 272.813C361.781 273.028 363.299 274.083 364.074 275.161C364.19 275.372 364.493 275.466 364.752 275.371C365.009 275.275 365.124 275.026 365.008 274.814C363.996 273.401 362.255 272.226 360.24 271.973C359.957 271.973 359.728 272.161 359.728 272.393C359.728 272.625 359.957 272.813 360.24 272.813Z" fill="#040606"/>
<path fill-rule="evenodd" clip-rule="evenodd" d="M364.121 271.924C364.833 271.876 366.111 272.931 366.501 273.29C366.648 273.489 366.963 273.552 367.205 273.432C367.447 273.312 367.524 273.052 367.378 272.853C366.564 272.083 365.246 270.958 363.848 271.112C363.575 271.175 363.416 271.407 363.491 271.63C363.567 271.854 363.849 271.986 364.121 271.924Z" fill="#040606"/>
<path fill-rule="evenodd" clip-rule="evenodd" d="M365.466 267.401L365.374 267.444C363.793 267.171 362.51 266.652 362.403 265.806C363.129 265.881 364.267 266.53 365.466 267.401ZM367.516 267.666C367.467 267.629 367.418 267.591 367.369 267.553C369.448 266.701 371.354 266.234 371.65 267.181C371.303 267.551 369.465 267.753 367.516 267.666ZM371.365 271.89C370.649 270.666 369.678 269.551 368.621 268.591C371.919 268.327 374.469 267.048 371.54 266.005C370.432 265.609 368.481 266.135 366.515 266.945C363.266 264.761 360.198 264.209 361.627 266.532C362.095 267.293 362.928 267.815 363.934 268.149C362.569 268.855 361.409 269.56 360.81 269.992C360.631 270.172 360.663 270.437 360.882 270.584C361.101 270.731 361.424 270.704 361.603 270.525C361.95 270.277 363.518 269.36 365.318 268.481C365.874 268.571 366.453 268.621 367.032 268.635C368.538 269.908 369.892 271.295 370.366 272.076C370.429 272.303 370.703 272.444 370.979 272.393C371.255 272.341 371.428 272.116 371.365 271.89Z" fill="#040606"/>
<path fill-rule="evenodd" clip-rule="evenodd" d="M384.335 90.9589C380.959 91.7464 379.134 94.1823 377.582 99.7288C376.03 105.275 373.521 121.315 374.297 129.821C375.073 138.328 377.721 146.629 377.721 146.629C377.721 146.629 379.361 130.271 379.772 126.673C380.183 123.076 384.381 101.415 386.297 96.8437C388.213 92.2708 389.491 91.6549 389.172 90.9589C388.853 90.2646 384.335 90.9589 384.335 90.9589Z" fill="#023342"/>
<path fill-rule="evenodd" clip-rule="evenodd" d="M426.054 280.874L428.241 280.947C428.111 284.651 429.065 289.864 417.474 290.019C405.884 290.173 406.709 286.254 406.662 282.133L426.054 280.874Z" fill="#642815"/>
<path fill-rule="evenodd" clip-rule="evenodd" d="M416.913 93.595C413.735 91.9433 412.222 92.1409 411.846 92.6041C411.469 93.0673 408.655 96.6337 407.998 102.183C407.341 107.731 406.256 119.621 406.779 127.053C407.301 134.484 415.448 151.031 424.594 152.022V137.747C423.854 137.935 423.235 138.077 422.826 138.144C420.564 138.515 414.998 138.665 412.716 137.654C412.716 137.654 411.521 128.922 411.521 124.499C411.521 120.909 413.897 104.372 416.068 101.191C418.24 98.0101 419.286 97.3599 419.365 96.8314C419.446 96.3029 419.003 94.817 416.913 93.595Z" fill="#023342"/>
<path fill-rule="evenodd" clip-rule="evenodd" d="M418.253 62.8063C418.253 65.3239 416.19 67.072 413.568 67.072C410.945 67.072 410.064 63.5521 410.064 62.75C410.064 61.947 411.209 58.753 414.158 58.753C417.106 58.753 418.412 61.1415 418.253 62.8063Z" fill="#FAB682"/>
<path fill-rule="evenodd" clip-rule="evenodd" d="M414.699 60.4612C413.17 60.2823 411.474 61.1931 411.648 62.9715C411.677 63.2713 413.648 63.2852 413.225 63.8202C412.717 64.4639 411.827 64.1919 411.567 63.9778C411.69 64.6411 413.503 65.1411 413.912 63.9738C414.111 63.406 413.683 62.6823 412.491 62.6562C412.74 61.31 413.651 60.8958 414.503 61.0224C416.247 61.2814 416.432 62.0933 416.551 62.599C416.835 61.9381 416.395 60.6614 414.699 60.4612Z" fill="#F57D5C"/>
<path fill-rule="evenodd" clip-rule="evenodd" d="M431.75 135.727C432.742 138.933 433.823 143.992 432.578 148.287C430.579 155.183 417.118 189.991 417.118 189.991L411.521 186.05C411.521 186.05 418.711 149.714 419.111 146.569C419.111 146.569 417.121 143.273 415.819 138.31C418.318 138.541 421.283 138.05 422.826 137.798C424.368 137.544 429.053 136.53 431.75 135.727Z" fill="#FAB682"/>
<path fill-rule="evenodd" clip-rule="evenodd" d="M349.382 76.4522L337.985 77.3123C337.144 77.3761 336.518 77.9936 336.595 78.6847L338.913 99.3833C338.99 100.075 339.742 100.588 340.583 100.524L351.981 99.6643C352.822 99.6006 353.448 98.983 353.371 98.292L351.053 77.5933C350.976 76.9015 350.224 76.3885 349.382 76.4522Z" fill="#024457"/>
<path fill-rule="evenodd" clip-rule="evenodd" d="M339.366 78.3857C338.714 78.4348 338.231 78.9126 338.29 79.4485L338.634 82.5199C338.693 83.0549 339.275 83.4528 339.927 83.4038C340.579 83.3539 341.063 82.8761 341.002 82.3418L340.659 79.2688C340.599 78.7345 340.017 78.3367 339.366 78.3857Z" fill="#040606"/>
<path fill-rule="evenodd" clip-rule="evenodd" d="M339.429 78.9509C339.009 78.9828 338.7 79.2875 338.739 79.6322C338.777 79.9769 339.149 80.2309 339.568 80.1991C339.989 80.1672 340.297 79.8617 340.259 79.5178C340.22 79.1731 339.848 78.9191 339.429 78.9509Z" fill="#252627"/>
<path fill-rule="evenodd" clip-rule="evenodd" d="M339.777 82.0618C339.529 82.0806 339.347 82.2611 339.37 82.4653C339.393 82.6687 339.612 82.8182 339.86 82.7994C340.108 82.7806 340.29 82.6009 340.267 82.3967C340.245 82.1933 340.026 82.043 339.777 82.0618Z" fill="white"/>
<path fill-rule="evenodd" clip-rule="evenodd" d="M339.603 80.5063C339.184 80.5382 338.874 80.8429 338.913 81.1884C338.951 81.5323 339.323 81.7864 339.743 81.7545C340.163 81.7226 340.471 81.4179 340.433 81.0732C340.394 80.7285 340.023 80.4745 339.603 80.5063Z" fill="#252627"/>
<path fill-rule="evenodd" clip-rule="evenodd" d="M415.992 265.385C407.728 265.713 410.327 272.58 410.594 275.55C410.86 278.52 406.795 279.505 406.662 282.133C406.529 284.759 408.928 287.901 417.224 287.901C425.521 287.901 428.252 284.904 428.252 280.437C428.252 275.97 423.767 275.556 423.767 272.813C423.767 270.072 426.133 265.563 415.992 265.385Z" fill="#ABCCD6"/>
<path fill-rule="evenodd" clip-rule="evenodd" d="M421.488 279.335C419.653 278.16 416.663 278.386 414.829 279.441C414.63 279.605 414.63 279.872 414.829 280.036C415.03 280.2 415.354 280.2 415.554 280.036C416.867 279.31 419.473 279.109 420.789 279.95C420.997 280.109 421.321 280.099 421.513 279.929C421.706 279.759 421.695 279.493 421.488 279.335Z" fill="#040606"/>
<path fill-rule="evenodd" clip-rule="evenodd" d="M420.843 276.582C419.304 275.821 416.752 275.676 415.33 276.731C415.141 276.904 415.159 277.17 415.37 277.326C415.58 277.48 415.905 277.465 416.093 277.292C416.978 276.645 419.219 276.763 420.172 277.217C420.385 277.37 420.709 277.351 420.894 277.175C421.08 277 421.058 276.734 420.843 276.582Z" fill="#040606"/>
<path fill-rule="evenodd" clip-rule="evenodd" d="M420.771 274.365C419.68 273.127 416.411 273.011 415.066 274.325C414.909 274.518 414.972 274.78 415.207 274.909C415.442 275.038 415.76 274.986 415.918 274.793C416.764 273.968 419.323 274.18 419.863 274.752C419.993 274.959 420.302 275.039 420.553 274.932C420.804 274.825 420.902 274.571 420.771 274.365Z" fill="#040606"/>
<path fill-rule="evenodd" clip-rule="evenodd" d="M416.066 270.799C414.253 270.879 412.582 270.625 412.092 269.855C412.428 269.168 414.14 269.766 416.066 270.799ZM418.547 270.494C419.674 269.444 420.605 268.624 421.6 268.643C421.627 268.66 421.658 268.68 421.664 268.702C421.879 269.444 420.407 270.117 418.547 270.494ZM422.941 274.65C421.708 273.183 420.378 272.05 419.068 271.195C421.768 270.457 423.693 269.042 422.3 268.026C421.065 267.125 419.134 268.658 417.389 270.237C413.028 268.095 409.494 268.949 411.464 270.545C412.533 271.412 414.138 271.724 415.805 271.684C415.233 272.192 414.726 272.603 414.329 272.79C412.942 273.447 412.542 273.508 411.047 273.955C410.777 274.023 410.625 274.259 410.708 274.481C410.792 274.703 411.078 274.828 411.349 274.759L413.119 274.229C414.888 273.601 416.251 272.566 417.392 271.555C419.385 272.756 421.328 274.203 422.011 275.002C422.129 275.213 422.433 275.306 422.69 275.209C422.946 275.112 423.06 274.862 422.941 274.65Z" fill="#040606"/>
<path fill-rule="evenodd" clip-rule="evenodd" d="M418.053 138.422C416.918 136.366 412.792 129.335 412.205 117.656C411.78 120.717 411.521 123.314 411.521 124.5C411.521 128.922 412.716 137.654 412.716 137.654C413.91 138.183 416.004 138.394 418.053 138.422Z" fill="#036683"/>
<path fill-rule="evenodd" clip-rule="evenodd" d="M409.173 184.266C412.157 187.763 414.647 190.347 419.984 190.904C420.266 190.904 420.496 190.716 420.496 190.483C420.496 190.251 420.266 190.063 419.984 190.063C415.156 189.555 412.739 186.987 410.07 183.86C409.933 183.656 409.621 183.583 409.373 183.695C409.126 183.807 409.036 184.063 409.173 184.266Z" fill="#040606"/>
<path fill-rule="evenodd" clip-rule="evenodd" d="M336.938 90.5268C336.938 90.5268 342.182 86.0724 343.23 87.1147C344.278 88.1579 338.667 91.9686 338.667 91.9686C338.667 91.9686 344.781 88.666 344.956 90.0563C345.13 91.4474 339.017 95.0972 339.017 95.0972C339.017 95.0972 344.606 93.3589 344.956 94.9232C345.305 96.4875 339.715 97.3566 339.715 97.3566C339.715 97.3566 345.479 97.3566 345.829 98.2258C346.179 99.0949 338.318 101.007 338.318 101.007L336.938 90.5268Z" fill="#FAB682"/>
<path d="M402.124 59.9082C402.031 59.8028 401.934 59.7023 401.831 59.6076C401.776 59.5578 401.719 59.5096 401.662 59.4622C401.59 59.4017 401.653 59.4704 401.688 59.4802C401.662 59.4728 401.63 59.4369 401.608 59.4213C401.494 59.3397 401.375 59.2653 401.253 59.1967C401.188 59.1599 401.122 59.1256 401.056 59.093C401.025 59.0783 400.996 59.0644 400.966 59.0505C400.946 59.0415 400.815 58.9802 400.914 59.0268C401.004 59.0685 400.902 59.0235 400.883 59.0162C400.851 59.0039 400.82 58.9933 400.789 58.9819C400.719 58.9574 400.648 58.9345 400.577 58.9141C400.442 58.8757 400.306 58.8438 400.167 58.8193C400.134 58.8136 400.101 58.8095 400.069 58.8038C399.972 58.7866 400.206 58.816 400.109 58.8095C400.034 58.8046 399.961 58.7948 399.886 58.7915C399.738 58.7842 399.589 58.7858 399.44 58.7956C399.074 58.8185 398.722 58.4574 398.739 58.0964C398.757 57.6986 399.047 57.4233 399.44 57.398C400.805 57.3122 402.216 57.8954 403.116 58.9206C403.358 59.1951 403.408 59.6419 403.116 59.9082C402.852 60.15 402.381 60.2023 402.124 59.9082Z" fill="#040606"/>
<path d="M389.573 61.0878C389.435 61.0454 389.296 61.0094 389.155 60.9833C389.11 60.9743 388.891 60.9106 389.074 60.9677C389.01 60.9473 388.925 60.953 388.859 60.9489C388.715 60.94 388.57 60.9391 388.427 60.9473C388.354 60.9506 388.283 60.9579 388.211 60.9637C388.063 60.9751 388.345 60.94 388.157 60.9718C388.024 60.9947 387.891 61.0233 387.761 61.0592C387.632 61.0944 387.465 61.1262 387.351 61.1965C387.505 61.1017 387.307 61.2169 387.272 61.234C387.206 61.2651 387.143 61.2986 387.08 61.3329C386.953 61.4031 386.833 61.4807 386.715 61.5641C386.415 61.7764 385.921 61.6261 385.754 61.3133C385.564 60.9539 385.685 60.5838 386.006 60.3575C387.126 59.5652 388.636 59.3406 389.947 59.74C390.298 59.847 390.557 60.2334 390.438 60.5993C390.323 60.9514 389.95 61.2022 389.573 61.0878Z" fill="#040606"/>
<path d="M399.083 72.0624C397.017 73.7754 393.983 74.0719 391.65 72.7053C390.872 72.2495 391.578 71.0413 392.358 71.4988C394.115 72.5272 396.511 72.3834 398.09 71.074C398.381 70.833 398.798 70.7905 399.083 71.074C399.332 71.3223 399.376 71.8198 399.083 72.0624Z" fill="#040606"/>
</svg>
