<svg width="60" height="60" viewBox="0 0 60 60" fill="none" xmlns="http://www.w3.org/2000/svg">
<path d="M26.675 52.5C25.8 52.5 25.125 51.725 25.25 50.85L27.5 35H18.75C16.55 35 17.925 33.125 17.975 33.05C21.125 27.475 25.85 19.225 32.1 8.22497C32.2682 7.93633 32.5315 7.71503 32.8447 7.59888C33.158 7.48274 33.5019 7.47893 33.8176 7.58812C34.1334 7.69731 34.4015 7.91272 34.5761 8.19757C34.7507 8.48242 34.821 8.81905 34.775 9.14997L32.525 25H41.3C42.3 25 42.85 25.475 42.3 26.65C34.075 41 29.3 49.375 27.925 51.775C27.675 52.225 27.2 52.5 26.675 52.5Z" fill="white"/>
</svg>
