<svg width="747" height="415" viewBox="0 0 747 415" fill="none" xmlns="http://www.w3.org/2000/svg">
<path d="M124.585 412.273C124.585 412.273 13.8694 363.029 16.4456 263.678C19.0198 164.327 123.948 118.127 195.184 179.466C266.418 240.805 312.519 189.368 349.425 137.532C386.33 85.6977 468.658 20.2802 576.673 50.5083C689.826 82.1735 724.645 196.779 713.437 273.258C705.386 328.191 675.943 374.766 635.82 410.553C634.515 411.716 633.18 412.867 631.813 414L124.585 412.273Z" fill="#F0F8FB"/>
<path d="M613.542 200.394H668.49V271.11H613.542V200.394Z" fill="#ABCCD6"/>
<path d="M234.919 163.766H330.703V259.565H234.919V163.766Z" fill="#ABCCD6"/>
<path d="M489.117 175.835H544.064V246.551H489.117V175.835Z" fill="#ABCCD6"/>
<path d="M385.154 214.108H440.102V284.823H385.154V214.108Z" fill="#ABCCD6"/>
<path d="M4.63458 334.933H723.438V242.144H4.63458V334.933Z" fill="#ABCCD6"/>
<path d="M668.49 171.428H723.438V242.144H668.49V171.428Z" fill="#ABCCD6"/>
<path d="M432.287 106.82C432.287 126.601 448.321 142.636 468.098 142.636C487.877 142.636 503.911 126.601 503.911 106.82C503.911 87.0391 487.877 71.0043 468.098 71.0043C448.321 71.0043 432.287 87.0391 432.287 106.82Z" fill="#E9EDFD"/>
<path d="M459.809 90.4045C459.809 94.9825 463.521 98.6945 468.098 98.6945C472.676 98.6945 476.387 94.9825 476.387 90.4045C476.387 85.8264 472.676 82.1145 468.098 82.1145C463.521 82.1145 459.809 85.8264 459.809 90.4045Z" fill="#F0F8FB"/>
<path d="M426.251 334.933H509.946V103.892H426.251V334.933Z" fill="#EFEFE8"/>
<path d="M481.97 153.187H498.611V120.44H481.97V153.187Z" fill="#ABCCD6"/>
<path d="M440.102 153.187H456.742V120.44H440.102V153.187Z" fill="#ABCCD6"/>
<path d="M481.97 203.113H498.611V170.366H481.97V203.113Z" fill="#ABCCD6"/>
<path d="M440.102 203.113H456.742V170.366H440.102V203.113Z" fill="#ABCCD6"/>
<path d="M481.97 253.041H498.611V220.293H481.97V253.041Z" fill="#ABCCD6"/>
<path d="M440.102 253.041H456.742V220.293H440.102V253.041Z" fill="#ABCCD6"/>
<path d="M481.97 302.968H498.611V270.221H481.97V302.968Z" fill="#ABCCD6"/>
<path d="M440.102 302.968H456.742V270.221H440.102V302.968Z" fill="#ABCCD6"/>
<path d="M315.521 334.933H406.546V50.4912H315.521V334.933Z" fill="#EFEFE8"/>
<path d="M385.158 83.135H397.569V70.722H385.158V83.135Z" fill="#ABCCD6"/>
<path d="M354.827 83.135H367.24V70.722H354.827V83.135Z" fill="#ABCCD6"/>
<path d="M324.498 83.135H336.909V70.722H324.498V83.135Z" fill="#ABCCD6"/>
<path d="M385.158 105.061H397.569V92.6484H385.158V105.061Z" fill="#ABCCD6"/>
<path d="M354.827 105.061H367.24V92.6484H354.827V105.061Z" fill="#ABCCD6"/>
<path d="M324.498 105.061H336.909V92.6484H324.498V105.061Z" fill="#ABCCD6"/>
<path d="M385.158 126.988H397.569V114.575H385.158V126.988Z" fill="#ABCCD6"/>
<path d="M354.827 126.988H367.24V114.575H354.827V126.988Z" fill="#ABCCD6"/>
<path d="M324.498 126.988H336.909V114.575H324.498V126.988Z" fill="#ABCCD6"/>
<path d="M385.158 148.915H397.569V136.501H385.158V148.915Z" fill="#ABCCD6"/>
<path d="M354.827 148.915H367.24V136.501H354.827V148.915Z" fill="#ABCCD6"/>
<path d="M324.498 148.915H336.909V136.501H324.498V148.915Z" fill="#ABCCD6"/>
<path d="M385.158 170.841H397.569V158.428H385.158V170.841Z" fill="#ABCCD6"/>
<path d="M354.827 170.841H367.24V158.428H354.827V170.841Z" fill="#ABCCD6"/>
<path d="M324.498 170.841H336.909V158.428H324.498V170.841Z" fill="#ABCCD6"/>
<path d="M385.158 192.767H397.569V180.353H385.158V192.767Z" fill="#ABCCD6"/>
<path d="M354.827 192.767H367.24V180.353H354.827V192.767Z" fill="#ABCCD6"/>
<path d="M324.498 192.767H336.909V180.353H324.498V192.767Z" fill="#ABCCD6"/>
<path d="M385.158 214.693H397.569V202.28H385.158V214.693Z" fill="#ABCCD6"/>
<path d="M354.827 214.693H367.24V202.28H354.827V214.693Z" fill="#ABCCD6"/>
<path d="M324.498 214.693H336.909V202.28H324.498V214.693Z" fill="#ABCCD6"/>
<path d="M385.158 236.62H397.569V224.207H385.158V236.62Z" fill="#ABCCD6"/>
<path d="M354.827 236.62H367.24V224.207H354.827V236.62Z" fill="#ABCCD6"/>
<path d="M324.498 236.62H336.909V224.207H324.498V236.62Z" fill="#ABCCD6"/>
<path d="M385.158 258.546H397.569V246.132H385.158V258.546Z" fill="#ABCCD6"/>
<path d="M354.827 258.546H367.24V246.132H354.827V258.546Z" fill="#ABCCD6"/>
<path d="M324.498 258.546H336.909V246.132H324.498V258.546Z" fill="#ABCCD6"/>
<path d="M385.158 280.473H397.569V268.059H385.158V280.473Z" fill="#ABCCD6"/>
<path d="M354.827 280.473H367.24V268.059H354.827V280.473Z" fill="#ABCCD6"/>
<path d="M324.498 280.473H336.909V268.059H324.498V280.473Z" fill="#ABCCD6"/>
<path d="M385.158 302.399H397.569V289.986H385.158V302.399Z" fill="#ABCCD6"/>
<path d="M354.827 302.399H367.24V289.986H354.827V302.399Z" fill="#ABCCD6"/>
<path d="M324.498 302.399H336.909V289.986H324.498V302.399Z" fill="#ABCCD6"/>
<path d="M25.3253 413.511H116.35V129.069H25.3253V413.511Z" fill="#EFEFE8"/>
<path d="M94.9608 161.712H107.373V149.299H94.9608V161.712Z" fill="#ABCCD6"/>
<path d="M64.6314 161.712H77.0427V149.299H64.6314V161.712Z" fill="#ABCCD6"/>
<path d="M34.3019 161.712H46.7133V149.299H34.3019V161.712Z" fill="#ABCCD6"/>
<path d="M94.9608 183.64H107.373V171.227H94.9608V183.64Z" fill="#ABCCD6"/>
<path d="M64.6314 183.64H77.0427V171.227H64.6314V183.64Z" fill="#ABCCD6"/>
<path d="M34.3019 183.64H46.7133V171.227H34.3019V183.64Z" fill="#ABCCD6"/>
<path d="M94.9608 205.566H107.373V193.152H94.9608V205.566Z" fill="#ABCCD6"/>
<path d="M64.6314 205.566H77.0427V193.152H64.6314V205.566Z" fill="#ABCCD6"/>
<path d="M34.3019 205.566H46.7133V193.152H34.3019V205.566Z" fill="#ABCCD6"/>
<path d="M94.9608 227.492H107.373V215.079H94.9608V227.492Z" fill="#ABCCD6"/>
<path d="M64.6314 227.492H77.0427V215.079H64.6314V227.492Z" fill="#ABCCD6"/>
<path d="M34.3019 227.492H46.7133V215.079H34.3019V227.492Z" fill="#ABCCD6"/>
<path d="M94.9608 249.419H107.373V237.005H94.9608V249.419Z" fill="#ABCCD6"/>
<path d="M64.6314 249.419H77.0427V237.005H64.6314V249.419Z" fill="#ABCCD6"/>
<path d="M34.3019 249.419H46.7133V237.005H34.3019V249.419Z" fill="#ABCCD6"/>
<path d="M94.9608 271.345H107.373V258.931H94.9608V271.345Z" fill="#ABCCD6"/>
<path d="M64.6314 271.345H77.0427V258.931H64.6314V271.345Z" fill="#ABCCD6"/>
<path d="M34.3019 271.345H46.7133V258.931H34.3019V271.345Z" fill="#ABCCD6"/>
<path d="M94.9608 293.271H107.373V280.858H94.9608V293.271Z" fill="#ABCCD6"/>
<path d="M64.6314 293.271H77.0427V280.858H64.6314V293.271Z" fill="#ABCCD6"/>
<path d="M34.3019 293.271H46.7133V280.858H34.3019V293.271Z" fill="#ABCCD6"/>
<path d="M94.9608 315.198H107.373V302.784H94.9608V315.198Z" fill="#ABCCD6"/>
<path d="M64.6314 315.198H77.0427V302.784H64.6314V315.198Z" fill="#ABCCD6"/>
<path d="M34.3019 315.198H46.7133V302.784H34.3019V315.198Z" fill="#ABCCD6"/>
<path d="M94.9608 337.123H107.373V324.711H94.9608V337.123Z" fill="#ABCCD6"/>
<path d="M64.6314 337.123H77.0427V324.711H64.6314V337.123Z" fill="#ABCCD6"/>
<path d="M34.3019 337.123H46.7133V324.711H34.3019V337.123Z" fill="#ABCCD6"/>
<path d="M529.86 334.933H642.442V50.4912H529.86V334.933Z" fill="#EFEFE8"/>
<path d="M623.029 243.345H630.626V96.2188H623.029V243.345Z" fill="#ABCCD6"/>
<path d="M602.691 243.345H610.288V96.2188H602.691V243.345Z" fill="#ABCCD6"/>
<path d="M582.352 243.345H589.95V96.2188H582.352V243.345Z" fill="#ABCCD6"/>
<path d="M562.014 243.345H569.611V96.2188H562.014V243.345Z" fill="#ABCCD6"/>
<path d="M541.675 243.345H549.273V96.2188H541.675V243.345Z" fill="#ABCCD6"/>
<path d="M529.86 81.9664H642.442V66.2288H529.86V81.9664Z" fill="#E9EDFD"/>
<path d="M732.871 171.893C732.871 175.126 735.455 177.746 738.642 177.746C741.829 177.746 744.413 175.126 744.413 171.893C744.413 168.661 741.829 166.04 738.642 166.04C735.455 166.04 732.871 168.661 732.871 171.893V171.893Z" stroke="#ABCCD6" stroke-width="3.38936" stroke-miterlimit="10"/>
<path d="M47.478 46.2137C47.478 49.4459 50.0628 52.0666 53.2496 52.0666C56.4375 52.0666 59.0202 49.4459 59.0202 46.2137C59.0202 42.9814 56.4375 40.3608 53.2496 40.3608C50.0628 40.3608 47.478 42.9814 47.478 46.2137V46.2137Z" stroke="#ABCCD6" stroke-width="3.38936" stroke-miterlimit="10"/>
<path d="M237.392 413.406H117.108C101.754 413.406 89.3087 400.958 89.3087 385.602V65.4336C89.3087 50.078 101.754 37.6296 117.108 37.6296H237.392C252.746 37.6296 265.192 50.078 265.192 65.4336V385.602C265.192 400.958 252.746 413.406 237.392 413.406Z" fill="#036683"/>
<path d="M255.639 413.406H135.355C120.002 413.406 107.556 400.958 107.556 385.602V65.4336C107.556 50.078 120.002 37.6296 135.355 37.6296H255.639C270.993 37.6296 283.44 50.078 283.44 65.4336V385.602C283.44 400.958 270.993 413.406 255.639 413.406Z" fill="#023342"/>
<path d="M255.805 404.983H135.19C124.62 404.983 116.052 396.414 116.052 385.842V66.9553C116.052 56.3838 124.62 47.8137 135.19 47.8137H255.805C266.374 47.8137 274.944 56.3838 274.944 66.9553V385.842C274.944 396.414 266.374 404.983 255.805 404.983Z" fill="white"/>
<path d="M224.983 57.2144H167.317C164.462 57.2144 162.148 54.8996 162.148 52.044V43.6113H230.152V52.044C230.152 54.8996 227.838 57.2144 224.983 57.2144Z" fill="#023342"/>
<path d="M211.781 48.5488H185.122" stroke="#312220" stroke-width="2.30447" stroke-miterlimit="10" stroke-linecap="round" stroke-linejoin="round"/>
<path d="M124.624 217.757H266.246V111.678H124.624V217.757Z" fill="#F0F8FB"/>
<path d="M120 119L262.287 226.44" stroke="white" stroke-width="10.9997" stroke-miterlimit="10"/>
<path d="M120.483 177L249.808 274.654" stroke="white" stroke-width="9.99771" stroke-miterlimit="10"/>
<path d="M158.402 98.5614L271.552 184" stroke="white" stroke-width="9.89538" stroke-miterlimit="10"/>
<path d="M256.215 101.496L191.021 197.363C188.81 200.613 189.386 205.002 192.362 207.571L213.287 225.636C222.828 233.875 224.147 242.847 216.271 252.69L182.497 300.239" stroke="white" stroke-width="13.6036" stroke-miterlimit="10"/>
<path d="M147.594 101.199C147.594 87.6958 161.846 77.5224 176.127 84.9035C178.346 86.0507 181.165 88.8215 182.374 91.0086C186.112 97.7705 185.775 104.439 183.089 109.708H183.109L182.957 109.983C182.888 110.113 182.815 110.239 182.745 110.367L166.368 139.985L149.963 110.319C149.908 110.22 149.852 110.12 149.798 110.019L149.722 109.883H149.732C148.373 107.285 147.594 104.335 147.594 101.199Z" fill="#338A44"/>
<path d="M158.051 101.001C158.051 105.595 161.775 109.318 166.368 109.318C170.961 109.318 174.685 105.595 174.685 101.001C174.685 96.4065 170.961 92.6827 166.368 92.6827C161.775 92.6827 158.051 96.4065 158.051 101.001Z" fill="white"/>
<path d="M336.493 324.058H355.936C375.024 324.058 390.497 344.086 390.497 368.791C390.497 393.497 375.024 413.525 355.936 413.525H336.493C317.406 413.525 301.931 393.497 301.931 368.791C301.931 344.086 317.406 324.058 336.493 324.058Z" fill="#171414"/>
<path d="M94.0257 324.058H113.468C132.556 324.058 148.03 344.086 148.03 368.791C148.03 393.497 132.556 413.525 113.468 413.525H94.0257C74.937 413.525 59.4633 393.497 59.4633 368.791C59.4633 344.086 74.937 324.058 94.0257 324.058Z" fill="#171414"/>
<path d="M186.374 313.22H329.7V377.332H186.374V313.22Z" fill="black"/>
<path d="M217.586 369.712C217.586 393.843 232.7 413.406 251.344 413.406C269.989 413.406 285.104 393.843 285.104 369.712C285.104 345.58 269.989 326.017 251.344 326.017C232.7 326.017 217.586 345.58 217.586 369.712Z" fill="#171414"/>
<path d="M270.337 413.406H251.344L231.931 393.989L251.344 326.017H270.337V413.406Z" fill="black"/>
<path d="M236.577 369.712C236.577 393.843 251.692 413.406 270.337 413.406C288.981 413.406 304.096 393.843 304.096 369.712C304.096 345.58 288.981 326.017 270.337 326.017C251.692 326.017 236.577 345.58 236.577 369.712Z" fill="#023342"/>
<path d="M256.371 368.791C256.371 381 263.669 390.897 272.669 390.897C281.671 390.897 288.967 381 288.967 368.791C288.967 356.582 281.671 346.686 272.669 346.686C263.669 346.686 256.371 356.582 256.371 368.791Z" fill="#B8B8C2"/>
<path d="M248.784 368.791C248.784 381 256.081 390.897 265.082 390.897C274.083 390.897 281.38 381 281.38 368.791C281.38 356.582 274.083 346.686 265.082 346.686C256.081 346.686 248.784 356.582 248.784 368.791Z" fill="white"/>
<path d="M428.841 313.22H572.167V377.332H428.841V313.22Z" fill="black"/>
<path d="M460.053 369.712C460.053 393.843 475.168 413.406 493.813 413.406C512.458 413.406 527.572 393.843 527.572 369.712C527.572 345.58 512.458 326.017 493.813 326.017C475.168 326.017 460.053 345.58 460.053 369.712Z" fill="#171414"/>
<path d="M512.804 413.406H493.813L474.398 393.989L493.813 326.017H512.804V413.406Z" fill="black"/>
<path d="M479.044 369.712C479.044 393.843 494.159 413.406 512.804 413.406C531.449 413.406 546.563 393.843 546.563 369.712C546.563 345.58 531.449 326.017 512.804 326.017C494.159 326.017 479.044 345.58 479.044 369.712Z" fill="#023342"/>
<path d="M498.839 368.791C498.839 381 506.136 390.897 515.137 390.897C524.138 390.897 531.435 381 531.435 368.791C531.435 356.582 524.138 346.686 515.137 346.686C506.136 346.686 498.839 356.582 498.839 368.791Z" fill="#B8B8C2"/>
<path d="M491.251 368.791C491.251 381 498.548 390.897 507.55 390.897C516.55 390.897 523.847 381 523.847 368.791C523.847 356.582 516.55 346.686 507.55 346.686C498.548 346.686 491.251 356.582 491.251 368.791Z" fill="white"/>
<path d="M594.935 377.33V301.419C594.935 290.592 586.994 281.366 576.273 279.877C566.862 278.57 554.813 277.43 542.343 277.66C542.343 277.66 470.283 233.362 443.86 233.362L278.318 232.51C256.16 232.207 234.248 237.2 214.409 247.075L140.684 283.766L42.6633 305.23C42.6633 305.23 22.3589 310.739 18.009 323.939C13.658 337.14 15.1076 351.644 15.1076 351.644H230.395C230.395 351.644 240.097 321.134 271.142 321.134C302.187 321.134 310.595 358.571 308.655 377.33H471.312C471.312 377.33 470.665 321.7 512.706 323.641C554.748 325.582 551.514 377.33 551.514 377.33H594.935Z" fill="#036683"/>
<path d="M593.337 351.644C599.009 351.644 603.609 356.238 603.616 361.91L603.623 367.057C603.623 372.73 599.024 377.33 593.35 377.33H551.514C551.514 377.33 551.727 363.329 548.018 351.644H593.337Z" fill="#023342"/>
<path d="M341.662 211.588H405.906C411.258 211.588 415.596 215.926 415.596 221.278V233.362H331.973V221.278C331.973 215.926 336.311 211.588 341.662 211.588Z" fill="black"/>
<path d="M329.164 211.588H393.407C398.758 211.588 403.097 215.926 403.097 221.278V233.362H319.475V221.278C319.475 215.926 323.813 211.588 329.164 211.588Z" fill="#023342"/>
<path d="M380.096 218.355H384.079V216.466H373.882V218.355H377.864V228.483H380.096V218.355Z" fill="#CCCCCC"/>
<path d="M364.453 223.952L366.718 218.698L368.967 223.952H364.453ZM363.714 225.703H369.721L370.907 228.483H373.206L367.799 216.466H365.603L360.178 228.483H362.513L363.714 225.703Z" fill="#CCCCCC"/>
<path d="M350.388 228.483L353.648 223.916L356.875 228.483H359.415L354.952 222.354L359.176 216.466H356.652L353.58 220.74L350.542 216.466H348.12L352.326 222.269L347.812 228.483H350.388Z" fill="#CCCCCC"/>
<path d="M345.162 216.466H342.93V228.483H345.162V216.466Z" fill="#CCCCCC"/>
<path d="M309.292 280.718L374.709 243.915C380.265 240.79 386.533 239.148 392.908 239.148H431.863C441.942 239.148 451.817 241.996 460.35 247.366L522.5 282.638C524.276 283.646 523.561 286.354 521.52 286.354H310.768C307.67 286.354 306.592 282.238 309.292 280.718Z" fill="#171414"/>
<path d="M522.911 284.168V310.568C522.911 310.568 465.837 299.071 460.053 364.487H329.7C329.7 364.487 333.184 300.541 309.116 284.943" stroke="black" stroke-width="2.08598" stroke-miterlimit="10" stroke-linecap="round" stroke-linejoin="round"/>
<path d="M416.532 286.354C416.532 286.354 430.131 292.388 423.536 364.487" stroke="black" stroke-width="2.08598" stroke-miterlimit="10" stroke-linecap="round" stroke-linejoin="round"/>
<path d="M395.564 299.133H408.663C410.096 299.133 411.258 297.971 411.258 296.538V295.334C411.258 293.902 410.096 292.74 408.663 292.74H395.564C394.131 292.74 392.97 293.902 392.97 295.334V296.538C392.97 297.971 394.131 299.133 395.564 299.133Z" fill="black"/>
<path d="M493.955 299.133H507.054C508.487 299.133 509.649 297.971 509.649 296.538V295.334C509.649 293.902 508.487 292.74 507.054 292.74H493.955C492.521 292.74 491.36 293.902 491.36 295.334V296.538C491.36 297.971 492.521 299.133 493.955 299.133Z" fill="black"/>
<path d="M349.839 246.597L274.963 286.354H147.668L233.303 244.474C240.47 240.969 248.342 239.148 256.319 239.148H347.985C352.106 239.148 353.479 244.663 349.839 246.597Z" fill="#171414"/>
<path d="M256.371 292.74H138.541" stroke="black" stroke-width="2.08598" stroke-miterlimit="10" stroke-linecap="round" stroke-linejoin="round"/>
<path d="M325.597 239.148L242.481 286.354H214.745L297.834 239.148H325.597Z" fill="#5E5E5E"/>
<path d="M273.823 239.148L190.707 286.354H181.692L264.781 239.148H273.823Z" fill="#5E5E5E"/>
<path d="M27.7358 377.33H220.143C225.817 377.33 230.417 372.73 230.417 367.057L230.395 351.644H15.1077L15.2793 364.873C15.2793 371.753 20.8557 377.33 27.7358 377.33Z" fill="#023342"/>
<path d="M77.6817 359.023H112.61V348.455H77.6817V359.023Z" fill="white"/>
<path d="M154.034 327.383H51.0842" stroke="black" stroke-width="2.08598" stroke-miterlimit="10" stroke-linecap="round" stroke-linejoin="round"/>
<path d="M135.245 335.244H67.5827" stroke="black" stroke-width="2.08598" stroke-miterlimit="10" stroke-linecap="round" stroke-linejoin="round"/>
<path d="M135.245 343.075H67.5827" stroke="black" stroke-width="2.08598" stroke-miterlimit="10" stroke-linecap="round" stroke-linejoin="round"/>
<path d="M149.738 344.26H194.674C198.471 344.26 201.549 341.181 201.549 337.384V330.934C201.549 327.136 198.471 324.058 194.674 324.058H149.738C145.942 324.058 142.864 327.136 142.864 330.934V337.384C142.864 341.181 145.942 344.26 149.738 344.26Z" fill="white"/>
<path d="M17.9414 324.058H52.0242C55.8205 324.058 58.8989 327.136 58.8989 330.934V337.384C58.8989 341.181 55.8205 344.26 52.0242 344.26H14.8769C14.5744 330.694 17.4822 324.888 17.9414 324.058Z" fill="white"/>
<path d="M201.549 337.384H142.864" stroke="black" stroke-width="2.08598" stroke-miterlimit="10" stroke-linecap="round" stroke-linejoin="round"/>
<path d="M58.8989 337.384H15.1076" stroke="black" stroke-width="2.08598" stroke-miterlimit="10" stroke-linecap="round" stroke-linejoin="round"/>
<path d="M421.748 46.4165C421.748 26.4089 442.866 11.3334 464.026 22.2698C467.314 23.9696 471.492 28.0765 473.281 31.3163C478.819 41.3351 478.321 51.2155 474.341 59.0226H474.37L474.145 59.4304C474.043 59.6225 473.937 59.8114 473.831 60.0003L449.566 103.884L425.259 59.9294C425.177 59.7813 425.094 59.6354 425.013 59.4852L424.902 59.2834H424.916C422.903 55.433 421.748 51.0621 421.748 46.4165Z" fill="#338A44"/>
<path d="M437.243 46.1214C437.243 52.9283 442.76 58.4474 449.566 58.4474C456.372 58.4474 461.889 52.9283 461.889 46.1214C461.889 39.3155 456.372 33.7964 449.566 33.7964C442.76 33.7964 437.243 39.3155 437.243 46.1214Z" fill="white"/>
<path d="M551.279 391.726H533.925L505.227 407.08L554.573 406.491L551.279 391.726Z" fill="#101010"/>
<path d="M554.745 412.986L554.573 406.491L505.228 407.08L505.398 413.575L554.745 412.986Z" fill="white"/>
<path d="M521.932 397.38L527.617 398.934" stroke="white" stroke-width="3.86551" stroke-miterlimit="10" stroke-linecap="round" stroke-linejoin="round"/>
<path d="M527.489 394.528L533.175 396.082" stroke="white" stroke-width="3.86551" stroke-miterlimit="10" stroke-linecap="round" stroke-linejoin="round"/>
<path d="M532.089 367.257H549.777L551.279 391.726H533.591L532.089 367.257Z" fill="#EBB28B"/>
<path d="M520.516 206.485L531.422 383.859H556.05L551.795 206.485H520.516Z" fill="#ABCCD6"/>
<path d="M591.161 391.726H573.807L545.109 407.08L594.455 406.491L591.161 391.726Z" fill="#101010"/>
<path d="M594.626 412.986L594.455 406.491L545.109 407.08L545.281 413.575L594.626 412.986Z" fill="white"/>
<path d="M561.813 397.38L567.498 398.934" stroke="white" stroke-width="3.86551" stroke-miterlimit="10" stroke-linecap="round" stroke-linejoin="round"/>
<path d="M567.371 394.528L573.056 396.082" stroke="white" stroke-width="3.86551" stroke-miterlimit="10" stroke-linecap="round" stroke-linejoin="round"/>
<path d="M570.214 367.257H587.901L591.161 391.726H573.473L570.214 367.257Z" fill="#EBB28B"/>
<path d="M572.667 206.485L596.781 383.859H569.859L534.808 206.485H572.667Z" fill="#ABCCD6"/>
<path d="M554.141 304.324L540.379 234.675L530.332 228.127" stroke="#171717" stroke-width="1.69219" stroke-miterlimit="10" stroke-linecap="round" stroke-linejoin="round"/>
<path d="M576.201 232.485L561.162 220.644" stroke="#171717" stroke-width="1.69219" stroke-miterlimit="10" stroke-linecap="round" stroke-linejoin="round"/>
<path d="M515.881 139.07L488.482 175.052C485.451 178.438 485.263 183.504 488.033 187.106C491.527 191.648 498.225 192.057 502.245 187.973L531.691 153.914C535.729 149.812 535.86 143.272 531.991 139.01H531.989C527.664 134.249 520.17 134.278 515.881 139.07Z" fill="#EBB28B"/>
<path d="M529.301 125.421C529.301 125.421 515.906 127.093 505.651 146.974L521.404 165.861L529.301 125.421Z" fill="#023342"/>
<path d="M507.267 176.528L469.707 152.968L462.229 160.69L489.46 188.596L507.267 176.528Z" fill="#EBB28B"/>
<path d="M463.689 138.247L445.065 143.682C445.065 143.682 445.065 158.117 462.244 160.727C463.184 160.87 467.411 159.252 468.139 158.604L470.998 150.453C472.012 149.117 471.925 147.247 470.793 146.009L463.689 138.247Z" fill="#EBB28B"/>
<path d="M465.23 140.649L458.641 131.998C457.663 130.791 455.989 130.538 454.88 131.427C453.818 132.282 453.644 133.896 454.483 135.129L460.568 144.617L465.23 140.649Z" fill="#E9B0A0"/>
<path d="M457.266 147.55L449.351 139.738C448.257 138.64 446.631 138.527 445.7 139.486C444.806 140.405 444.861 141.993 445.825 143.128L453.377 151.8L457.266 147.55Z" fill="#E9B0A0"/>
<path d="M460.314 142.213L452.835 134.825C451.732 133.736 450.059 133.688 449.072 134.719C448.127 135.706 448.145 137.346 449.112 138.479L456.195 146.771L460.314 142.213Z" fill="#E9B0A0"/>
<path d="M447.727 119.524L444.762 119.715V139.183L455.168 155.48L458.332 155.221L452.749 134.75L447.727 119.524Z" fill="#36438D"/>
<path d="M465.169 146.546L456.472 154.746C455.677 155.735 454.166 155.722 453.388 154.719L434.45 131.08C433.988 130.482 433.996 129.645 434.469 129.056L443.592 120.326C444.254 119.503 445.51 119.514 446.157 120.348L465.191 144.113C465.748 144.831 465.739 145.837 465.169 146.546Z" fill="#050907"/>
<path d="M468.063 146.354L459.365 154.553C458.57 155.543 457.06 155.529 456.283 154.526L437.345 130.888C436.882 130.29 436.889 129.453 437.363 128.864L446.487 120.134C447.148 119.311 448.405 119.322 449.051 120.156L468.085 143.921C468.642 144.639 468.633 145.645 468.063 146.354Z" fill="white"/>
<path d="M468.989 153.103C470.009 152.601 472.554 149.947 472.104 145.922C471.513 140.626 468.778 136.615 468.778 136.615C467.869 134.91 466.816 134.084 465.338 134.29C463.737 134.515 462.711 136.219 462.997 137.403L464.665 141.101C464.665 141.101 462.829 145.789 466.672 152.896L468.989 153.103Z" fill="#EBB28B"/>
<path d="M554.503 121.607C554.503 121.607 564.634 123.974 571.858 127.618C576.405 129.912 576.909 134.869 576.337 139.93L572.667 206.485H520.516L516.867 142.186C516.364 135.132 520.507 128.219 527.202 125.944C534.702 123.394 539.439 120.966 543.43 120.735L554.503 121.607Z" fill="#023342"/>
<path d="M517.973 161.747L516.867 142.186" stroke="#171717" stroke-width="1.69219" stroke-miterlimit="10" stroke-linecap="round" stroke-linejoin="round"/>
<path d="M554.503 121.607L560.516 123.26C560.516 123.26 556.05 131.866 539.828 130.41C528.451 129.389 533.034 123.823 533.034 123.823L538.695 121.774L554.503 121.607Z" fill="#EBB28B"/>
<path d="M603.786 159.816L576.857 199.468L584.109 207.401L613.836 178.272L603.786 159.816Z" fill="#EBB28B"/>
<path d="M552.114 201.273L563.632 195.414L562.501 192.886C562.089 191.966 562.345 190.884 563.124 190.244C563.928 189.583 565.082 189.565 565.907 190.2L577.252 199.109L584.109 207.401C577.887 212.731 573.82 212.665 571.477 211.633C571.203 211.724 570.933 211.824 570.655 211.903L561.082 214.649C560.196 215.031 559.166 214.658 558.733 213.797C558.417 213.173 558.306 212.171 560.148 211.236L558.306 212.171C557.369 212.576 556.281 212.166 555.844 211.244C555.432 210.43 555.938 209.353 557.019 208.649L555.609 209.203C554.588 209.644 553.385 209.142 553.002 208.058C552.671 207.121 553.167 206.086 554.055 205.637L556.09 204.607L553.673 205.192C552.56 205.586 551.318 204.991 550.954 203.825C550.64 202.823 551.179 201.748 552.114 201.273Z" fill="#EBB28B"/>
<path d="M555.477 204.896L562.288 201.682" stroke="#171717" stroke-width="1.09893" stroke-miterlimit="10" stroke-linecap="round" stroke-linejoin="round"/>
<path d="M557.309 208.529L563.875 205.794" stroke="#171717" stroke-width="1.09893" stroke-miterlimit="10" stroke-linecap="round" stroke-linejoin="round"/>
<path d="M559.539 211.476L565.102 209.281" stroke="#171717" stroke-width="1.09893" stroke-miterlimit="10" stroke-linecap="round" stroke-linejoin="round"/>
<path d="M566.015 148.886L600.26 178.425C603.455 181.657 608.5 182.152 612.264 179.605C617.008 176.394 617.823 169.731 613.992 165.471L581.79 134.005C577.943 129.724 571.422 129.196 566.935 132.801C561.92 136.83 561.491 144.312 566.015 148.886Z" fill="#EBB28B"/>
<path d="M564.471 124.553C564.471 124.553 582.343 128.046 597.004 146.636L581.466 166.894L559.189 150.938L564.471 124.553Z" fill="#023342"/>
<path d="M573.904 161.476L560.981 152.221" stroke="#171717" stroke-width="1.69219" stroke-miterlimit="10" stroke-linecap="round" stroke-linejoin="round"/>
<path d="M526.801 65.734C526.801 65.734 520.767 71.1266 525.774 83.2337L534.057 66.8877L526.801 65.734Z" fill="#036683"/>
<path d="M560.602 67.1946C560.602 67.1946 567.648 66.4284 569.248 77.2972C570.848 88.167 562.862 94.6638 553.997 99.9189L560.602 67.1946Z" fill="#036683"/>
<path d="M525.695 81.0875C525.695 92.5132 534.747 101.775 545.911 101.775C557.077 101.775 566.129 92.5132 566.129 81.0875C566.129 69.6628 557.077 60.4006 545.911 60.4006C534.747 60.4006 525.695 69.6628 525.695 81.0875Z" fill="#036683"/>
<path d="M532.851 89.9988C531.949 92.6838 529.041 94.1282 526.356 93.2257C523.671 92.3232 522.227 89.415 523.13 86.73C524.032 84.045 526.94 82.5995 529.624 83.5031C532.309 84.4056 533.753 87.3138 532.851 89.9988Z" fill="#DD8161"/>
<path d="M538.6 101.901L538.3 124.22L554.944 121.469L553.735 89.458L538.6 101.901Z" fill="#EBB28B"/>
<path d="M538.439 113.21L550.129 101.775L538.069 103.894L538.439 113.21Z" fill="#171717"/>
<path d="M528.108 71.1491C528.108 71.1491 523.607 89.1264 525.639 96.0277C527.672 102.93 533.031 107.404 541.981 105.936C541.981 105.936 552.302 105.739 555.353 90.5172C559.945 67.6013 539.21 59.2115 528.108 71.1491Z" fill="#EBB28B"/>
<path d="M552.462 90.5042C552.462 90.5042 545.856 75.33 553.031 72.3714C555.183 71.4839 556.445 71.0332 557.462 78.6385C558.481 86.2428 555.825 87.4876 555.825 87.4876L552.462 90.5042Z" fill="#036683"/>
<path d="M561.597 92.247C560.663 95.0222 557.659 96.5149 554.884 95.5823C552.109 94.6487 550.617 91.6428 551.549 88.8688C552.482 86.0936 555.487 84.5998 558.262 85.5324C561.035 86.466 562.529 89.4719 561.597 92.247Z" fill="#EBB28B"/>
<path d="M559.009 89.0813C559.009 89.0813 555.159 87.8493 553.997 92.0925" stroke="#171717" stroke-width="1.04672" stroke-miterlimit="10" stroke-linecap="round" stroke-linejoin="round"/>
<path d="M531.803 88.4942L530.652 92.3758C530.597 92.6645 530.776 92.9456 531.061 93.0154L532.364 93.2246" stroke="#1E0B07" stroke-width="0.989386" stroke-miterlimit="10" stroke-linecap="round" stroke-linejoin="round"/>
<path d="M539.895 87.2795C539.937 87.9867 539.398 88.5941 538.692 88.6359C537.985 88.6788 537.378 88.1401 537.336 87.4329C537.293 86.7268 537.832 86.1194 538.539 86.0765C539.245 86.0346 539.852 86.5733 539.895 87.2795Z" fill="#171717"/>
<path d="M529.177 86.9907C529.217 87.6464 528.717 88.2088 528.061 88.2485C527.405 88.2882 526.842 87.7881 526.804 87.1335C526.764 86.4778 527.264 85.9144 527.919 85.8747C528.575 85.836 529.137 86.3351 529.177 86.9907Z" fill="#171717"/>
<path d="M536.198 78.5988L545.856 81.6862C545.856 81.6862 543.709 78.7362 540.922 77.8605C538.138 76.9848 536.198 78.5988 536.198 78.5988Z" fill="#171717"/>
<path d="M530.78 78.3713L525.695 80.011C525.695 80.011 526.569 77.8369 528.036 77.3754C529.504 76.915 530.78 78.3713 530.78 78.3713Z" fill="#171717"/>
<path d="M538.615 94.1873C538.615 94.1873 535.059 95.9987 531.503 95.9987C531.503 95.9987 536.34 99.5111 538.615 94.1873Z" fill="white"/>
<path d="M555.179 72.5453C555.179 72.5453 549.807 77.1748 536.507 74.4952C523.208 71.8145 522.683 62.799 524.285 59.6311C524.285 59.6311 529.179 63.4311 537.243 61.3535C541.74 60.1934 551.785 55.9663 557.816 60.4939C559.895 62.0553 561.103 64.6437 560.602 67.1946C560.215 69.1681 558.897 71.4217 555.179 72.5453Z" fill="#036683"/>
<path d="M615.71 307.974H650.329V233.802C650.329 226.387 644.319 220.378 636.906 220.378H629.132C621.719 220.378 615.71 226.387 615.71 233.802V307.974Z" stroke="#101010" stroke-width="7.61245" stroke-miterlimit="10"/>
<path d="M642.695 405.535C642.695 409.974 646.294 413.575 650.733 413.575C655.172 413.575 658.771 409.974 658.771 405.535C658.771 401.096 655.172 397.495 650.733 397.495C646.294 397.495 642.695 401.096 642.695 405.535Z" fill="#101010"/>
<path d="M607.268 405.535C607.268 409.974 610.867 413.575 615.307 413.575C619.746 413.575 623.345 409.974 623.345 405.535C623.345 401.096 619.746 397.495 615.307 397.495C610.867 397.495 607.268 401.096 607.268 405.535Z" fill="#101010"/>
<path d="M605.533 403.65H660.507C668.351 403.65 674.709 397.29 674.709 389.446V296.706C674.709 288.86 668.351 282.501 660.507 282.501H605.533C597.688 282.501 591.33 288.86 591.33 296.706V389.446C591.33 397.29 597.688 403.65 605.533 403.65Z" fill="#EFEFE8"/>
<path d="M657.363 385.401H660.407V301.662H657.363V385.401Z" stroke="#171717" stroke-width="1.62655" stroke-miterlimit="10" stroke-linecap="round" stroke-linejoin="round"/>
<path d="M641.172 385.401H644.216V301.662H641.172V385.401Z" stroke="#171717" stroke-width="1.62655" stroke-miterlimit="10" stroke-linecap="round" stroke-linejoin="round"/>
<path d="M624.982 385.401H628.026V301.662H624.982V385.401Z" stroke="#171717" stroke-width="1.62655" stroke-miterlimit="10" stroke-linecap="round" stroke-linejoin="round"/>
<path d="M608.791 385.401H611.836V301.662H608.791V385.401Z" stroke="#171717" stroke-width="1.62655" stroke-miterlimit="10" stroke-linecap="round" stroke-linejoin="round"/>
<path d="M727.055 413.525H1.99999" stroke="black" stroke-width="2.59668" stroke-miterlimit="10" stroke-linecap="round" stroke-linejoin="round"/>
</svg>
